<?xml version="1.0" standalone="no"?>
<!DOCTYPE svg PUBLIC "-//W3C//DTD SVG 20010904//EN"
 "http://www.w3.org/TR/2001/REC-SVG-20010904/DTD/svg10.dtd">
<svg version="1.0" xmlns="http://www.w3.org/2000/svg"
 width="400.000000pt" height="400.000000pt" viewBox="0 0 400.000000 400.000000"
 preserveAspectRatio="xMidYMid meet">

<g transform="translate(0.000000,400.000000) scale(0.100000,-0.100000)"
fill="#000000" stroke="none">
<path d="M0 2000 l0 -2000 2000 0 2000 0 0 2000 0 2000 -1043 0 c-798 0 -1046
-3 -1055 -12 -9 -9 -12 -9 -12 0 0 9 -217 12 -945 12 l-945 0 0 -2000z m2115
1510 c-3 -6 1 -7 9 -4 29 11 17 -15 -14 -31 -37 -19 -39 -29 -4 -21 16 4 23 3
20 -3 -4 -5 -2 -12 4 -16 6 -4 8 -11 5 -16 -4 -5 -1 -9 4 -9 6 0 11 6 11 13 0
9 2 9 8 -1 12 -18 79 -27 96 -13 7 6 16 25 20 42 4 23 10 29 23 26 158 -42
153 -40 153 -74 0 -17 5 -35 11 -39 8 -5 8 -8 0 -13 -6 -4 7 -18 31 -34 23
-15 38 -27 33 -27 -6 0 5 -9 24 -21 24 -14 47 -19 86 -18 38 2 58 -2 70 -14 9
-9 23 -17 31 -17 8 0 13 -3 11 -7 -3 -5 15 -8 38 -8 37 0 50 -6 82 -37 22 -21
48 -38 60 -38 15 0 27 -12 40 -40 10 -23 23 -38 31 -35 17 6 15 -55 -3 -79 -8
-11 -15 -29 -15 -40 0 -17 -2 -18 -10 -6 -8 12 -10 10 -10 -8 0 -15 -4 -21
-11 -16 -7 4 -10 1 -7 -7 7 -20 -29 -89 -47 -89 -7 0 -17 -5 -21 -12 -5 -7 -3
-8 6 -3 9 6 10 2 5 -16 -4 -13 -8 -43 -8 -66 l0 -42 -31 23 c-17 13 -53 33
-81 45 -27 12 -57 26 -66 31 -37 19 -106 22 -138 5 -20 -10 -50 -15 -79 -13
-43 3 -48 6 -65 41 -10 20 -23 37 -28 37 -5 0 -9 5 -9 11 0 6 -10 20 -22 31
-30 25 -183 98 -208 98 -10 0 -22 4 -25 10 -3 5 -24 8 -45 6 -22 -2 -38 0 -34
5 3 5 0 9 -5 9 -6 0 -11 -4 -11 -9 0 -14 -26 -20 -56 -12 -34 9 -42 45 -14 68
20 17 27 43 12 43 -4 0 -18 -7 -30 -16 -25 -17 -30 -10 -8 12 8 8 23 14 33 14
17 1 17 1 0 11 -9 5 -22 7 -27 4 -6 -3 -10 1 -10 9 0 19 36 22 43 4 3 -8 6 -6
6 4 1 9 -7 22 -16 27 -17 10 -17 10 0 11 10 0 15 5 12 10 -4 6 -10 8 -15 5
-19 -12 -19 29 0 42 25 17 26 43 3 43 -15 0 -15 2 -4 9 13 8 13 12 1 26 -9 11
-10 19 -4 23 10 7 26 38 29 57 6 45 19 66 38 63 15 -2 21 3 22 20 1 13 8 28
16 33 19 12 62 11 54 -1z m420 -124 c21 -20 23 -25 9 -30 -35 -13 -58 -3 -68
32 -10 31 24 30 59 -2z m-1055 -261 c26 -13 60 -78 48 -91 -3 -2 -24 15 -47
38 -23 24 -56 48 -74 55 l-32 11 38 1 c21 1 51 -6 67 -14z m-52 -192 c-8 -10
-18 -31 -22 -46 -4 -16 -11 -25 -17 -21 -12 7 -4 67 14 95 10 16 13 17 26 4
13 -13 13 -17 -1 -32z m-70 -209 c11 -22 25 -51 31 -66 6 -17 18 -28 29 -28
31 0 33 12 7 46 -14 18 -25 35 -25 39 0 3 -9 19 -21 34 -16 22 -19 36 -14 60
7 33 19 40 29 16 3 -8 12 -15 21 -15 10 0 15 -10 15 -30 0 -16 9 -46 21 -66
12 -23 18 -46 15 -60 -3 -12 -2 -26 4 -29 13 -8 13 -55 0 -55 -6 0 -28 6 -50
12 -33 11 -43 20 -59 58 -11 25 -22 57 -24 70 -2 14 -6 32 -10 40 -13 35 -17
87 -10 134 7 51 7 51 14 -35 5 -56 14 -101 27 -125z m480 99 c37 -38 68 -77
69 -87 2 -10 14 -29 28 -42 24 -22 33 -26 88 -38 15 -4 27 -13 27 -21 0 -22
60 -29 105 -11 22 9 63 17 90 19 53 4 95 21 95 38 0 14 66 43 84 36 27 -11 34
-46 19 -106 -15 -64 -18 -150 -8 -202 6 -34 5 -37 -22 -42 -33 -7 -82 8 -133
41 -27 18 -43 21 -74 16 -41 -7 -43 -4 -21 49 6 13 4 16 -10 11 -47 -18 -46
-134 2 -226 13 -26 13 -28 -5 -28 -37 0 -157 42 -175 61 -10 10 -22 19 -28 19
-6 0 -7 5 -3 11 4 8 -3 9 -26 4 -23 -5 -30 -4 -26 4 4 6 15 11 24 11 17 1 74
29 58 30 -4 0 2 9 15 20 l24 21 -79 -6 c-82 -6 -110 3 -99 32 4 9 -2 22 -13
32 -53 45 -68 71 -70 125 -1 29 -10 70 -19 90 -14 29 -16 51 -11 98 3 34 12
66 19 71 9 7 9 10 -1 14 -11 4 -8 23 4 23 3 0 35 -30 72 -67z m249 -19 c-3 -3
-12 -4 -19 -1 -8 3 -5 6 6 6 11 1 17 -2 13 -5z m908 -220 c14 -15 12 -18 -22
-35 -20 -10 -38 -17 -41 -15 -6 7 28 66 38 66 5 0 16 -7 25 -16z m-472 -88
c20 -29 88 -76 135 -93 29 -10 43 -9 100 12 36 13 68 22 71 20 2 -3 -2 -24 -9
-49 -13 -47 -52 -91 -85 -98 -11 -2 -19 -10 -17 -17 2 -12 -21 -41 -33 -41 -4
0 -19 -9 -33 -21 -18 -14 -38 -19 -63 -18 -21 2 -47 -4 -62 -14 -15 -9 -31
-17 -37 -17 -5 0 -10 -4 -10 -10 0 -21 -49 -21 -94 -1 -50 22 -56 33 -28 53
21 16 52 63 52 79 0 7 7 21 16 30 15 16 26 118 25 221 0 16 3 17 28 3 15 -7
35 -25 44 -39z m343 -170 c-14 -24 -38 -54 -53 -65 -14 -12 -23 -24 -19 -28
10 -10 64 47 96 102 16 27 30 46 30 41 0 -17 -52 -111 -81 -143 -16 -19 -41
-52 -54 -74 -29 -45 -55 -52 -55 -13 0 17 6 28 20 31 11 3 21 8 21 12 1 3 3
15 4 26 4 35 35 88 73 126 21 19 39 34 41 33 2 -2 -8 -23 -23 -48z m-1020 5
c-3 -4 3 -19 14 -31 11 -13 20 -29 20 -35 0 -13 28 -30 43 -26 5 1 5 -4 1 -10
-4 -7 0 -9 14 -5 32 11 72 -4 72 -25 0 -10 5 -19 10 -19 6 0 10 -4 10 -9 0 -4
-13 -8 -30 -7 -16 1 -30 5 -30 9 0 14 -30 40 -38 32 -4 -3 1 -11 11 -16 9 -6
17 -17 17 -24 0 -8 7 -15 16 -15 9 0 12 -5 8 -12 -16 -26 -13 -57 7 -63 10 -4
19 -12 19 -19 0 -17 46 -41 120 -62 110 -30 179 -74 180 -116 0 -9 -17 -26
-37 -38 -36 -21 -42 -22 -98 -10 -33 6 -69 17 -80 23 -11 6 -31 11 -45 12 -54
1 -132 69 -137 119 -7 62 -5 80 6 84 6 2 11 8 11 13 0 6 -5 7 -11 4 -13 -9
-38 24 -39 51 0 12 -10 34 -22 49 -27 35 -37 155 -12 155 3 0 3 -4 0 -9z m204
-155 c0 -16 7 -26 23 -31 19 -6 20 -8 4 -12 -23 -6 -47 14 -40 34 3 8 0 19 -8
24 -11 7 -11 9 4 9 11 0 17 -8 17 -24z m102 -5 c81 -31 108 -46 108 -57 0 -10
-6 -11 -22 -4 -13 5 -35 11 -50 14 -15 4 -40 17 -55 31 -29 25 -21 32 19 16z
m143 -71 c3 -5 -1 -10 -9 -10 -9 0 -16 5 -16 10 0 6 4 10 9 10 6 0 13 -4 16
-10z m220 -60 c-3 -5 -11 -10 -16 -10 -6 0 -7 5 -4 10 3 6 11 10 16 10 6 0 7
-4 4 -10z m-124 -633 c-6 -45 -13 -95 -16 -112 -3 -16 -2 -23 2 -15 10 24 55
81 60 76 3 -2 -1 -21 -7 -43 -6 -21 -22 -103 -36 -181 -13 -79 -31 -154 -40
-166 -17 -27 -99 -56 -155 -56 -32 0 -39 4 -39 19 0 26 68 170 94 200 l21 24
-21 -11 c-11 -6 -34 -24 -50 -40 -16 -16 -60 -46 -99 -67 -38 -20 -92 -53
-118 -72 -43 -32 -50 -34 -75 -24 -15 7 -41 24 -57 39 -17 15 -29 26 -27 25 9
-4 110 65 146 99 22 21 50 41 63 44 17 5 22 11 18 24 -4 13 7 30 34 57 61 58
80 73 91 73 5 0 14 8 20 18 8 12 13 13 16 4 8 -17 24 -5 18 13 -4 8 1 18 10
21 9 3 14 9 11 14 -4 6 18 29 115 121 32 31 34 21 21 -84z m-647 -312 c100
-106 87 -127 -32 -47 -53 34 -72 53 -72 69 0 12 -13 59 -30 105 -16 45 -30 84
-30 86 0 3 22 -29 49 -69 27 -41 79 -106 115 -144z m196 -287 c11 -12 20 -25
20 -29 0 -12 -27 -29 -34 -21 -4 4 -13 7 -19 7 -14 0 -21 30 -13 51 8 20 22
18 46 -8z m1790 -528 c0 -5 -4 -10 -10 -10 -5 0 -10 5 -10 10 0 6 5 10 10 10
6 0 10 -4 10 -10z m-1750 -170 c16 -29 3 -59 -27 -66 -41 -11 -71 44 -41 74
19 19 56 14 68 -8z"/>
<path d="M2520 3370 c0 -5 5 -10 11 -10 5 0 7 5 4 10 -3 6 -8 10 -11 10 -2 0
-4 -4 -4 -10z"/>
<path d="M2223 2503 c-25 -5 -30 -19 -10 -26 15 -5 47 10 47 23 0 6 -3 9 -7 9
-5 -1 -18 -4 -30 -6z"/>
<path d="M2165 1870 c-3 -5 -3 -10 2 -10 4 0 2 -4 -6 -9 -10 -7 -7 -9 11 -8
15 1 25 8 25 19 2 19 -22 25 -32 8z"/>
<path d="M2281 1050 c-6 -18 -8 -36 -5 -41 3 -5 0 -9 -5 -9 -6 0 -11 -8 -11
-17 0 -23 16 -6 34 38 8 19 11 41 7 48 -6 9 -12 3 -20 -19z"/>
</g>
</svg>
